<svg xmlns="http://www.w3.org/2000/svg" viewBox="0 0 670.83 138.67"><defs><style>.cls-1{fill:#fff;}</style></defs><title>Asset 1</title><g id="Layer_2" data-name="Layer 2"><g id="Layer_1-2" data-name="Layer 1"><path class="cls-1" d="M200,28c-1.54-5.48-3.77-11.39-11.22-11.39-6.59,0-9.5,4.8-9.5,9.42,0,6.25,4.11,9.16,10.87,12.67S205,46.19,205,55.78c0,9-7.63,16.19-19,16.19a29.76,29.76,0,0,1-8.39-1.29,28.81,28.81,0,0,1-4.19-1.8c-.69-1.79-1.8-9.16-2.32-13.27l2.49-.6c1.37,5.23,5.22,13.87,14,13.87,6.42,0,10.28-4,10.28-10.27s-4.71-9.33-11.13-12.76c-5.48-2.91-14.13-7.19-14.13-16.87,0-8.22,6.59-15.24,17.64-15.24a35.49,35.49,0,0,1,10.79,2c.34,3.08.77,6.42,1.45,11.82Z"/><path class="cls-1" d="M257.48,70.68V68.46c5-.52,6-.86,6-6.94V47.22c0-6.08-2.14-9.93-7.53-9.93-3.09,0-6.34,1.71-9.59,4.45a20.29,20.29,0,0,1,.25,3.6V62c0,5.4.77,5.91,5.48,6.43v2.22H233.76V68.46c5.31-.52,6.08-.94,6.08-6.6V47.13c0-6.33-2.23-9.84-7.45-9.84-3.43,0-6.77,2.31-9.34,4.45V61.86c0,5.57.69,6.08,4.89,6.6v2.22H209.87V68.46c5.65-.52,6.42-1,6.42-6.6V44.14c0-5.48-.26-5.91-5.22-6.68v-2A52.76,52.76,0,0,0,223,32v6.93c1.8-1.2,3.68-2.74,6.25-4.36a12.75,12.75,0,0,1,7-2.32c4.11,0,7.79,2.57,9.51,7a79.67,79.67,0,0,1,7.1-4.8,11.85,11.85,0,0,1,6.43-2.23c6.68,0,10.87,4.71,10.87,13.11V61.86c0,5.74.69,6.08,5.57,6.6v2.22Z"/><path class="cls-1" d="M280.43,70.68V68.46c5.39-.52,6-1,6-6.85V44c0-5.31-.25-5.66-5.39-6.51V35.4a53.43,53.43,0,0,0,12.16-3.34V61.61c0,5.82.6,6.33,6.08,6.85v2.22ZM285,20.42A4.41,4.41,0,0,1,289.33,16a4.29,4.29,0,0,1,4.29,4.46,4.38,4.38,0,0,1-4.37,4.36A4.48,4.48,0,0,1,285,20.42Z"/><path class="cls-1" d="M319.3,70.6a8.64,8.64,0,0,1-3.59,1.11c-5.4,0-8.39-3.42-8.39-10.19V36.6h-5.91l-.34-.85,2.31-2.49h3.94V27l5.56-5.65,1.2.17V33.26h9.68a2.44,2.44,0,0,1-.52,3.34h-9.16v22c0,6.94,2.83,8.22,5,8.22a12.24,12.24,0,0,0,5.31-1.46l.77,2.23Z"/><path class="cls-1" d="M352.1,70.68V68.46c5-.52,5.65-1,5.65-6.6V47.65c0-7-2.65-10.53-8.39-10.53a12.09,12.09,0,0,0-8.91,4.36V61.86c0,5.48.43,6.08,5.49,6.6v2.22H327.78V68.46c5.14-.43,5.91-.94,5.91-6.6V21c0-5.4-.17-5.83-5.82-6.34v-2a93,93,0,0,0,12.58-3V38.49c3-3.09,7.63-6.26,12.25-6.26,6.94,0,11.82,4.37,11.82,14.65v15c0,5.66.6,6.17,5.65,6.6v2.22Z"/><path class="cls-1" d="M396.46,43.37c-1.63-5.06-4.63-8.48-8.82-8.48a5.59,5.59,0,0,0-5.57,5.91c0,3.85,3.43,5.82,7.28,7.45,6.42,2.65,10.79,5.73,10.79,11.64,0,7.8-7.28,11.82-14.13,11.82-4.37,0-8.31-1.63-9.85-2.91-.6-1.2-1.37-7-1.37-10.1l2.23-.43c1.54,5.65,5.4,10.61,10.53,10.61a6,6,0,0,0,6.08-6c0-3.77-2.48-5.82-6.76-7.79-5.14-2.4-10.71-5.23-10.71-11.82,0-6,5.14-11.05,13-11.05a20,20,0,0,1,7.62,1.46,64.1,64.1,0,0,1,1.89,9.16Z"/><path class="cls-1" d="M443.9,51.33c0,13.79-10.11,20.38-18.58,20.38-11.74,0-18.76-9.42-18.76-18.92,0-14.13,11-20.56,18.76-20.56C435.93,32.23,443.9,40.71,443.9,51.33Zm-29.37-1.28c0,10.79,4.71,18.83,11.73,18.83,5.31,0,9.67-3.93,9.67-15.67,0-10-4-18.15-11.47-18.15C419.15,35.06,414.53,40.37,414.53,50.05Z"/><path class="cls-1" d="M473,70.68V68.46c5.06-.52,5.66-1.2,5.66-7.11V47.05c0-5.91-2.06-9.76-7.8-9.76-3.42,0-6.76,2.14-9.33,4.36V61.78c0,5.82.51,6.16,5.57,6.68v2.22H448.52V68.46c5.83-.6,6.25-1,6.25-6.68V44.05c0-5.48-.51-5.74-5.13-6.59v-2A51.61,51.61,0,0,0,461.54,32v6.85c1.71-1.29,3.6-2.57,5.74-4,2.39-1.54,4.62-2.57,7.1-2.57,6.77,0,11.05,4.71,11.05,13V61.78c0,5.82.43,6.16,5.4,6.68v2.22Z"/><path class="cls-1" d="M495.62,70.68V68.46c5.4-.52,6-1,6-6.85V44c0-5.31-.26-5.66-5.4-6.51V35.4a53.29,53.29,0,0,0,12.16-3.34V61.61c0,5.82.6,6.33,6.08,6.85v2.22Zm4.54-50.26A4.41,4.41,0,0,1,504.53,16a4.29,4.29,0,0,1,4.28,4.46,4.38,4.38,0,0,1-4.37,4.36A4.48,4.48,0,0,1,500.16,20.42Z"/><path class="cls-1" d="M545.89,71.71a7,7,0,0,1-4-1.63,8.81,8.81,0,0,1-2.05-3.85c-3.43,2.31-7.54,5.48-10.11,5.48a10.33,10.33,0,0,1-10.27-10.45c0-4.19,2.22-6.85,6.93-8.47,5.14-1.72,11.39-4,13.28-5.57V45.68c0-6.17-2.92-9.68-7.2-9.68a4.85,4.85,0,0,0-3.85,1.71c-1.11,1.12-1.89,3-2.57,5.66a2.38,2.38,0,0,1-2.48,2c-1.55,0-3.77-1.72-3.77-3.69,0-1.28,1.11-2.22,2.74-3.42,2.4-1.71,8-5,12.84-6a11.21,11.21,0,0,1,7,2.32c3,2.48,3.85,6,3.85,10.44V60.92c0,3.86,1.54,5.14,3,5.14a6.57,6.57,0,0,0,3.08-.94l.86,2.22Zm-6.25-21.58c-1.8.94-5.91,2.74-7.71,3.6-3.34,1.54-5.23,3.17-5.23,6.25a6.27,6.27,0,0,0,6.08,6.59,12.24,12.24,0,0,0,6.86-3.08Z"/><path class="cls-1" d="M579.88,70.68V68.46c5.06-.52,5.66-1.2,5.66-7.11V47.05c0-5.91-2.06-9.76-7.8-9.76-3.42,0-6.76,2.14-9.33,4.36V61.78c0,5.82.51,6.16,5.57,6.68v2.22H555.39V68.46c5.83-.6,6.25-1,6.25-6.68V44.05c0-5.48-.51-5.74-5.13-6.59v-2A51.61,51.61,0,0,0,568.41,32v6.85c1.71-1.29,3.6-2.57,5.74-4,2.39-1.54,4.62-2.57,7.1-2.57,6.77,0,11,4.71,11,13V61.78c0,5.82.43,6.16,5.4,6.68v2.22Z"/><path class="cls-1" d="M115.9,84.17c-5.13-8.86-13.26-9-14.27-9v0L136,68.1l-34.3-7.2v0a27.78,27.78,0,0,1,17-6.32c7.55-.1,14.1-9.33,10-16.43,0,0-1.27,11.15-15.34,7.41-9.9-2.64-15.73,3-16.42,3.76h0L116.14,20,86.79,39.15h0a27.7,27.7,0,0,1,7.57-16.53C99.62,17.21,97.73,6.06,89.77,4c0,0,7,8.78-5.61,16.08-8.86,5.14-9,13.27-9,14.27h0L68.11,0,60.9,34.29h0a27.63,27.63,0,0,1-6.34-17c-.1-7.55-9.32-14.1-16.43-9.94,0,0,11.15,1.26,7.41,15.33C42.89,32.57,48.6,38.4,49.3,39.07h0L20,19.81h0L35.61,43.74l3.54,5.43h0A27.8,27.8,0,0,1,22.61,41.6C17.21,36.33,6.05,38.22,4,46.18c0,0,8.78-7,16.08,5.61,5.16,8.89,13.32,9,14.28,9v0L0,67.85l34.3,7.21h0a27.81,27.81,0,0,1-17,6.33c-7.55.1-14.1,9.32-9.95,16.43,0,0,1.26-11.15,15.34-7.41,9.94,2.65,15.78-3.09,16.43-3.77v0L19.82,116,49.17,96.81a27.67,27.67,0,0,1-7.58,16.53c-5.27,5.4-3.37,16.56,4.59,18.64,0,0-7-8.77,5.61-16.07,8.88-5.15,9-13.31,9-14.28h0L67.85,136l7.21-34.29h0a27.75,27.75,0,0,1,6.33,17c.1,7.54,9.33,14.1,16.43,9.94,0,0-11.15-1.26-7.4-15.33,2.64-9.92-3.06-15.76-3.77-16.43l0,0L116,116.13l-10.1-15.49-9-13.86h0a27.76,27.76,0,0,1,16.53,7.58c5.41,5.27,16.57,3.38,18.65-4.58C132,89.78,123.21,96.77,115.9,84.17Z"/><path class="cls-1" d="M199.78,93.25c-.39,2.2-.83,5.92-1.12,8.56l-1.47.15a10.75,10.75,0,0,0-.59-4.36c-.44-1.17-1.47-1.51-5.24-1.51h-2.93l-4.56,24.27c-.73,4-.39,4.26,4,4.55l-.3,1.33H174.28l.3-1.33c4.16-.29,4.45-.63,5.18-4.55l4.65-24.27h-2.49c-4.21,0-5.09.39-6,1.46a18.12,18.12,0,0,0-2.4,4.41H172c.88-2.89,1.71-6,2.3-8.71h1c.54,1.12,1.08,1.22,2.4,1.22h18.4a3,3,0,0,0,2.59-1.22Z"/><path class="cls-1" d="M195.86,109.06c2.5-2.79,5.54-4.8,6.86-4.8s1.27,2.25.53,5.68l-.48,2.44h.14c2.5-4.79,5.39-8.12,7.34-8.12a2.66,2.66,0,0,1,2.11,1.22,2.17,2.17,0,0,1-.05,2.11A5,5,0,0,1,211,109c-.44.29-.84.29-1.08,0a2.28,2.28,0,0,0-1.66-.84c-.59,0-1.37.49-2.5,2.06a34.14,34.14,0,0,0-3.48,6.07c-.78,3.28-1.37,6.36-1.95,9.59a18.5,18.5,0,0,0-3.48.88l-.39-.39c1.27-5.24,2.64-11.26,3.57-16.49.3-1.62.3-2.11-.09-2.11a9.76,9.76,0,0,0-3.48,2.35Z"/><path class="cls-1" d="M212.7,119.19a14.9,14.9,0,0,1,7.44-13.36,12.43,12.43,0,0,1,5.28-1.57c4.07,0,6.51,2.79,6.51,7.63a15.88,15.88,0,0,1-5.23,11.85,12.19,12.19,0,0,1-7.54,3.08C214.51,126.82,212.7,123.15,212.7,119.19Zm9.79,5.38c2.64-1.13,5.33-6.31,5.33-12.58,0-4-1.71-5.87-4-5.87a4.4,4.4,0,0,0-1.86.44c-1.91.83-5.19,4.84-5.19,12.38,0,3.62,1.52,5.93,4.11,5.93A4,4,0,0,0,222.49,124.57Z"/><path class="cls-1" d="M243.83,104.85a18.52,18.52,0,0,1,4.55-.59c5,0,7.05,2.4,7.05,6.75a15.79,15.79,0,0,1-4.16,10.13,19.27,19.27,0,0,1-9.11,5.68,7.8,7.8,0,0,1-2.89-.49l-1.37,6.9c-.58,2.79-.29,3.23,2.11,3.48l1.17.1-.14,1.27-11.31.59.2-1.28c3.08-.58,3.62-1,4.3-4,1.81-8.56,3.67-17.13,5.49-25.6a23.24,23.24,0,0,0-4,1.77l-.34-1.23a23.72,23.72,0,0,1,4.7-2.45l.54-2.2a15.13,15.13,0,0,1,3.57-2.84l.49.25ZM240.06,123a4.36,4.36,0,0,0,3,1.67c3.48,0,8.22-6.61,8.22-12.87,0-4.36-2.3-5.44-5.13-5.44a11.45,11.45,0,0,0-2.79.35Z"/><path class="cls-1" d="M267.86,121.93c-1.62,2-5.44,4.89-7.15,4.89-1,0-1.61-.78-.64-4.79l3-12.53c.29-1.08.29-1.57-.05-1.57a9.53,9.53,0,0,0-3.33,2.1l-.59-1.12c2.7-2.64,6.12-4.65,7.44-4.65,1.08,0,1,1.57.49,3.87l-3.37,13.5c-.3,1.18-.2,1.57.09,1.57.59,0,2.3-1.27,3.43-2.3Zm1.27-24.87a2.74,2.74,0,0,1-2.6,2.84,2.06,2.06,0,0,1-2-2.15,2.88,2.88,0,0,1,2.69-2.89A2,2,0,0,1,269.13,97.06Z"/><path class="cls-1" d="M286.65,121.39c-3,3.48-6.9,5.43-9.79,5.43-3.13,0-5.24-2.49-5.24-7.19a16.92,16.92,0,0,1,5.05-11.75c2-1.76,5.43-3.62,7.83-3.62,2.1,0,3.67,1.22,3.72,2.45A2.7,2.7,0,0,1,286.6,109c-.39.24-.73.14-1.08-.29a4.28,4.28,0,0,0-3.67-2.11c-1.76,0-3.13,1.47-4.06,3.23a19.27,19.27,0,0,0-2.15,8.86c0,3.47,1.37,5.28,3.47,5.28,2.5,0,5.48-2.25,6.81-3.62Z"/><path class="cls-1" d="M310.58,121.73c-2.64,3.28-5.92,5.09-7.14,5.09-.93,0-1.57-.73-.88-4.3l1-4.65h-.09a35,35,0,0,1-6.32,6.75c-1.61,1.32-3.23,2.2-4.55,2.2s-2.84-1.61-2.84-5.53A18,18,0,0,1,295.6,108c2.45-2.06,6-3.77,9.11-3.77a16.35,16.35,0,0,1,3,.34,9.62,9.62,0,0,0,1.86.3l.15.19c-.78,3-2.25,9.69-3.38,15.91-.34,1.71-.19,2.1.1,2.1a10.52,10.52,0,0,0,3.52-2.54Zm-6.36-7.63c.54-2,1.27-5.48,1.61-7a8.17,8.17,0,0,0-3.27-.69,6.12,6.12,0,0,0-3.48,1c-3.33,2.45-5.29,8.22-5.29,13.07,0,2.2.64,3.23,1.33,3.23C297,123.69,302.56,117.47,304.22,114.1Z"/><path class="cls-1" d="M322.52,121.59c-2.54,3-6,5.23-7.53,5.23-.93,0-1.72-1.12-.69-5.92,1.71-8,3.43-16.05,5.09-24.13.49-2.1.2-2.45-2.06-2.45l-1.32,0,.2-1.18c3.82-.44,6.61-1.71,7.24-1.71.44,0,.49.44.3,1.47-2,9.44-4,18.94-6.07,28.63-.3,1.42-.1,1.71.19,1.71.54,0,2.55-1.27,3.92-2.69Z"/><path class="cls-1" d="M362.9,126.63h-.49c-4.7-.25-6.36-1.52-8.12-4.8a77.36,77.36,0,0,1-3.33-7.24c-.79-1.91-1.42-2.3-3.18-2.3h-2.06L344.3,120c-.83,4.31-.54,4.55,3.43,4.89l-.3,1.33H335.15l.29-1.33c3.77-.39,4.06-.58,4.9-4.89l3.76-19.68c.79-4.06.59-4.2-3.32-4.6l.34-1.27h10.62c2.64,0,5.24.34,6.95,1.52a6.87,6.87,0,0,1,2.89,6c0,4.89-3.67,8-7.59,9.35.54,1.37,1.81,4.35,2.94,6.55a34.59,34.59,0,0,0,3,5.14,6,6,0,0,0,3.33,2.35Zm-14.59-15.86a9.25,9.25,0,0,0,5.24-1.22,8.62,8.62,0,0,0,3.67-7.15c0-4.26-2.2-6.41-5.77-6.41a3.81,3.81,0,0,0-2.21.49c-.44.29-.68.88-.93,2.15L346,110.77Z"/><path class="cls-1" d="M381.69,121.29c-4.3,4.6-8,5.53-10.32,5.53S366,125.5,366,119.68c0-4.6,2-9.74,5.87-12.68a12.19,12.19,0,0,1,6.76-2.74,4,4,0,0,1,4.31,3.92c0,4.84-8.23,7.48-12.93,8.66a9.61,9.61,0,0,0-.09,1.56c0,2.65.83,5.53,3.81,5.53,2.06,0,4.7-1.37,7.15-3.76Zm-6.9-14.44c-1.32.74-3.77,3-4.6,8.47,7-1.86,9.06-4.11,9.06-6.36a2.41,2.41,0,0,0-2.45-2.69A4,4,0,0,0,374.79,106.85Z"/><path class="cls-1" d="M383.6,123.3a2.44,2.44,0,0,1,1.42-2.06c.59-.29,1-.19,1.22.15a6.05,6.05,0,0,0,4.7,3,3,3,0,0,0,3.23-2.94c0-1.22-.54-2.3-2.84-4.11s-4.26-3.48-4.26-6c0-1.47.59-3,2.55-4.75a9.7,9.7,0,0,1,5.43-2.35c2.16,0,3.82,1.47,3.82,2.74a2.38,2.38,0,0,1-1.22,2,.7.7,0,0,1-1.08-.2,4.88,4.88,0,0,0-3.82-2.2,2.62,2.62,0,0,0-2.64,2.74c0,1.76,1.42,3,3.18,4.36,2.94,2.2,4.11,3.62,4.11,5.72,0,3.72-4.89,7.39-8.86,7.39C386.24,126.82,383.6,125,383.6,123.3Z"/><path class="cls-1" d="M417.52,121.29c-4.31,4.6-8,5.53-10.33,5.53s-5.39-1.32-5.39-7.14c0-4.6,2-9.74,5.88-12.68a12.16,12.16,0,0,1,6.75-2.74,4,4,0,0,1,4.31,3.92c0,4.84-8.22,7.48-12.92,8.66a8.66,8.66,0,0,0-.1,1.56c0,2.65.83,5.53,3.82,5.53,2,0,4.7-1.37,7.14-3.76Zm-6.91-14.44c-1.32.74-3.76,3-4.6,8.47,7-1.86,9.06-4.11,9.06-6.36a2.41,2.41,0,0,0-2.45-2.69A4.06,4.06,0,0,0,410.61,106.85Z"/><path class="cls-1" d="M441.69,121.73c-2.64,3.28-5.92,5.09-7.14,5.09-.93,0-1.57-.73-.88-4.3l1-4.65h-.09a35,35,0,0,1-6.32,6.75c-1.61,1.32-3.23,2.2-4.55,2.2s-2.84-1.61-2.84-5.53A18,18,0,0,1,426.72,108c2.44-2.06,6-3.77,9.1-3.77a16.35,16.35,0,0,1,3,.34,9.62,9.62,0,0,0,1.86.3l.15.19c-.78,3-2.25,9.69-3.38,15.91-.34,1.71-.19,2.1.1,2.1a10.62,10.62,0,0,0,3.53-2.54Zm-6.36-7.63c.54-2,1.27-5.48,1.62-7a8.27,8.27,0,0,0-3.28-.69,6.12,6.12,0,0,0-3.48,1c-3.33,2.45-5.28,8.22-5.28,13.07,0,2.2.63,3.23,1.32,3.23C428.13,123.69,433.67,117.47,435.33,114.1Z"/><path class="cls-1" d="M444.53,109.06c2.5-2.79,5.53-4.8,6.85-4.8s1.27,2.25.54,5.68l-.49,2.44h.15c2.49-4.79,5.38-8.12,7.34-8.12a2.66,2.66,0,0,1,2.1,1.22,2.12,2.12,0,0,1,0,2.11A5,5,0,0,1,459.7,109c-.44.29-.83.29-1.07,0a2.29,2.29,0,0,0-1.67-.84c-.59,0-1.37.49-2.5,2.06a34.13,34.13,0,0,0-3.47,6.07c-.78,3.28-1.37,6.36-2,9.59a18.21,18.21,0,0,0-3.47.88l-.39-.39c1.27-5.24,2.64-11.26,3.57-16.49.29-1.62.29-2.11-.1-2.11a9.67,9.67,0,0,0-3.47,2.35Z"/><path class="cls-1" d="M476.29,121.39c-3,3.48-6.9,5.43-9.79,5.43-3.13,0-5.23-2.49-5.23-7.19a17,17,0,0,1,5-11.75c2-1.76,5.43-3.62,7.83-3.62,2.1,0,3.67,1.22,3.72,2.45a2.7,2.7,0,0,1-1.62,2.25c-.39.24-.73.14-1.07-.29a4.31,4.31,0,0,0-3.67-2.11c-1.77,0-3.14,1.47-4.07,3.23a19.27,19.27,0,0,0-2.15,8.86c0,3.47,1.37,5.28,3.48,5.28,2.49,0,5.48-2.25,6.8-3.62Z"/><path class="cls-1" d="M500.62,122.12c-2.6,3-5.63,4.7-7.05,4.7-1.27,0-1.62-1.37-.83-4.74l2.59-11.36c.59-2.59.39-3.48-.39-3.48-2.25,0-8,5.49-10.38,9.74-.49,2.16-1.37,6.51-1.81,8.91a21.93,21.93,0,0,0-3.47.93l-.34-.39c2.1-9.45,4.25-19.33,6.16-29.37.54-2.54.3-2.69-1.61-2.74l-1.42,0,.14-1.18c3.87-.39,6.51-1.71,7.2-1.71.44,0,.49.39.2,1.71l-4.41,20.31h.1a28.75,28.75,0,0,1,9.05-8.12,7.3,7.3,0,0,1,3.28-1c1.23,0,2.6.88,1.37,6.22l-2.54,11c-.3,1.42-.25,1.76.14,1.76A8.47,8.47,0,0,0,500,121Z"/><path class="cls-1" d="M531.74,95.74c-3.82.4-4.06.64-4.75,4.21l-4,20.61c-.73,3.77-.44,4.06,3.57,4.35l-.29,1.33H513.78l.34-1.33c3.82-.29,4.16-.63,4.9-4.35L523,100c.69-3.57.34-3.81-3.72-4.21l.34-1.27H532Z"/><path class="cls-1" d="M552.15,122.08c-2.89,3.13-5.63,4.74-6.9,4.74s-1.66-1.32-.78-5.09,1.76-7.24,2.64-10.86c.69-2.79.39-3.53-.39-3.53-2.16,0-7.83,6.07-10.28,10.23-.59,2.4-1.32,5.34-1.91,8.27a25,25,0,0,0-3.52,1l-.3-.39c1.32-5.29,2.79-11.16,4-16.59.39-1.57.24-2,0-2a9.11,9.11,0,0,0-3.18,2.2l-.64-1.17c2.64-2.89,5.53-4.65,6.9-4.65,1.13,0,1.32,1.66.39,5.43l-1,4.26h.09a32.87,32.87,0,0,1,9-8.61,6.53,6.53,0,0,1,3.28-1.08c1.17,0,2.54.73,1.07,7-.78,3.33-1.56,6.75-2.39,10.18-.3,1.32-.25,1.76.09,1.76s1.77-.88,3.24-2.3Z"/><path class="cls-1" d="M554.55,123.3a2.42,2.42,0,0,1,1.42-2.06c.58-.29,1-.19,1.22.15a6,6,0,0,0,4.7,3,3,3,0,0,0,3.23-2.94c0-1.22-.54-2.3-2.84-4.11s-4.26-3.48-4.26-6c0-1.47.59-3,2.55-4.75a9.65,9.65,0,0,1,5.43-2.35c2.15,0,3.82,1.47,3.82,2.74a2.37,2.37,0,0,1-1.23,2,.69.69,0,0,1-1.07-.2,4.9,4.9,0,0,0-3.82-2.2,2.62,2.62,0,0,0-2.64,2.74c0,1.76,1.42,3,3.18,4.36,2.93,2.2,4.11,3.62,4.11,5.72,0,3.72-4.89,7.39-8.86,7.39C557.19,126.82,554.55,125,554.55,123.3Z"/><path class="cls-1" d="M585.23,106.71l-4.84.24-2.89,13.51c-.49,2.4-.24,2.94.3,2.94.83,0,3.22-1.62,4.4-2.84l.68,1c-1.61,2-5.28,5.23-7.88,5.23-1.12,0-2.1-1.42-1-6.46L576.86,107h-3.62l-.14-.44,1.22-1.47h2.94l1.12-4.65,3.72-3,.44.29L580.83,105h5.68Z"/><path class="cls-1" d="M596.1,121.93c-1.62,2-5.43,4.89-7.15,4.89-1,0-1.61-.78-.63-4.79l3-12.53c.3-1.08.3-1.57-.05-1.57A9.53,9.53,0,0,0,588,110l-.58-1.12c2.69-2.64,6.11-4.65,7.44-4.65,1.07,0,1,1.57.49,3.87l-3.38,13.5c-.29,1.18-.2,1.57.1,1.57.58,0,2.3-1.27,3.42-2.3Zm1.27-24.87a2.73,2.73,0,0,1-2.59,2.84,2.06,2.06,0,0,1-2.06-2.15,2.88,2.88,0,0,1,2.69-2.89A2,2,0,0,1,597.37,97.06Z"/><path class="cls-1" d="M612.49,106.71l-4.84.24-2.89,13.51c-.49,2.4-.25,2.94.29,2.94.84,0,3.23-1.62,4.41-2.84l.68,1c-1.61,2-5.28,5.23-7.88,5.23-1.12,0-2.1-1.42-1-6.46L604.12,107H600.5l-.15-.44,1.23-1.47h2.93l1.13-4.65,3.72-3,.44.29L608.09,105h5.68Z"/><path class="cls-1" d="M636.52,121.83c-2.34,2.84-5.58,5-7.09,5-1,0-1.72-.93-.74-5.19.39-1.71.59-2.69.93-4.3h-.1a37.94,37.94,0,0,1-7.87,8,7.26,7.26,0,0,1-4,1.52c-1.32,0-2.89-.93-1.61-6.21.88-3.77,1.76-7.54,2.64-11.26.29-1.22.24-1.66-.15-1.66a14.56,14.56,0,0,0-3.42,2.34l-.54-1.17c2.84-2.84,5.87-4.6,7.19-4.6,1.13,0,1.32,1,.54,4.26-.88,3.86-1.76,7.83-2.69,11.74-.54,2.4-.15,3.23.58,3.23,2.75,0,8.23-6.55,10.14-10.13.53-2.25,1.12-4.84,1.76-7.83l3.38-1.27H636c-1.32,5.19-2.59,10.67-3.81,17-.3,1.52-.2,1.91.14,1.91a10,10,0,0,0,3.53-2.54Z"/><path class="cls-1" d="M652.48,106.71l-4.85.24-2.89,13.51c-.49,2.4-.24,2.94.3,2.94.83,0,3.23-1.62,4.4-2.84l.69,1c-1.62,2-5.29,5.23-7.88,5.23-1.13,0-2.11-1.42-1-6.46L644.11,107h-3.62l-.15-.44,1.22-1.47h2.94l1.13-4.65,3.72-3,.44.29L648.07,105h5.68Z"/><path class="cls-1" d="M669.61,121.29c-4.31,4.6-8,5.53-10.33,5.53s-5.38-1.32-5.38-7.14c0-4.6,2-9.74,5.87-12.68a12.19,12.19,0,0,1,6.75-2.74,4,4,0,0,1,4.31,3.92c0,4.84-8.22,7.48-12.92,8.66a8.66,8.66,0,0,0-.1,1.56c0,2.65.83,5.53,3.82,5.53,2.06,0,4.7-1.37,7.15-3.76Zm-6.9-14.44c-1.32.74-3.77,3-4.6,8.47,7-1.86,9-4.11,9-6.36a2.41,2.41,0,0,0-2.45-2.69A4,4,0,0,0,662.71,106.85Z"/></g></g></svg>